<?xml version="1.0" encoding="UTF-8"?>
<svg xmlns="http://www.w3.org/2000/svg" version="1.1" xmlns:cc="http://creativecommons.org/ns#" xmlns:dc="http://purl.org/dc/elements/1.1/" xmlns:inkscape="http://www.inkscape.org/namespaces/inkscape" xmlns:rdf="http://www.w3.org/1999/02/22-rdf-syntax-ns#" xmlns:sodipodi="http://sodipodi.sourceforge.net/DTD/sodipodi-0.dtd" xmlns:svg="http://www.w3.org/2000/svg" viewBox="0 0 100 100">
  <!-- Generator: Adobe Illustrator 30.1.0, SVG Export Plug-In . SVG Version: 2.1.1 Build 136)  -->
  <defs>
    <style>
      .st0 {
        fill-rule: evenodd;
      }
    </style>
  </defs>
  <g id="Layer_1" inkscape:version="0.48.4 r9939">
    <path id="path3081-4-8-5-5-7" class="st0" d="M90,63.91c0,2.88-2.34,5.22-5.22,5.22s-5.22-2.34-5.22-5.22,2.34-5.22,5.22-5.22,5.22,2.34,5.22,5.22ZM20.43,63.91c0,2.88-2.34,5.22-5.22,5.22s-5.22-2.34-5.22-5.22,2.34-5.22,5.22-5.22,5.22,2.34,5.22,5.22ZM76.09,63.91c0,2.88-2.34,5.22-5.22,5.22s-5.22-2.34-5.22-5.22,2.34-5.22,5.22-5.22,5.22,2.34,5.22,5.22ZM34.35,63.91c0,2.88-2.34,5.22-5.22,5.22s-5.22-2.34-5.22-5.22,2.34-5.22,5.22-5.22,5.22,2.34,5.22,5.22ZM90,50c0,2.88-2.34,5.22-5.22,5.22s-5.22-2.34-5.22-5.22,2.34-5.22,5.22-5.22,5.22,2.34,5.22,5.22ZM20.43,50c0,2.88-2.34,5.22-5.22,5.22s-5.22-2.34-5.22-5.22,2.34-5.22,5.22-5.22,5.22,2.34,5.22,5.22ZM62.17,50c0,2.88-2.34,5.22-5.22,5.22s-5.22-2.34-5.22-5.22,2.34-5.22,5.22-5.22,5.22,2.34,5.22,5.22ZM76.09,50c0,2.88-2.34,5.22-5.22,5.22s-5.22-2.34-5.22-5.22,2.34-5.22,5.22-5.22,5.22,2.34,5.22,5.22ZM34.35,50c0,2.88-2.34,5.22-5.22,5.22s-5.22-2.34-5.22-5.22,2.34-5.22,5.22-5.22,5.22,2.34,5.22,5.22ZM48.26,50c0,2.88-2.34,5.22-5.22,5.22s-5.22-2.34-5.22-5.22,2.34-5.22,5.22-5.22,5.22,2.34,5.22,5.22ZM62.17,36.09c0,2.88-2.34,5.22-5.22,5.22s-5.22-2.34-5.22-5.22h0c0-2.88,2.34-5.22,5.22-5.22s5.22,2.34,5.22,5.22ZM76.09,36.09c0,2.88-2.34,5.22-5.22,5.22s-5.22-2.34-5.22-5.22h0c0-2.88,2.34-5.22,5.22-5.22s5.22,2.34,5.22,5.22ZM34.35,36.09c0,2.88-2.34,5.22-5.22,5.22s-5.22-2.34-5.22-5.22h0c0-2.88,2.34-5.22,5.22-5.22s5.22,2.34,5.22,5.22ZM48.26,36.09c0,2.88-2.34,5.22-5.22,5.22s-5.22-2.34-5.22-5.22h0c0-2.88,2.34-5.22,5.22-5.22s5.22,2.34,5.22,5.22Z" inkscape:connector-curvature="0"/>
  </g>
</svg>