<?xml version="1.0" encoding="UTF-8"?>
<svg id="Calque_1" xmlns="http://www.w3.org/2000/svg" version="1.1" viewBox="0 0 100 100">
  <!-- Generator: Adobe Illustrator 30.1.0, SVG Export Plug-In . SVG Version: 2.1.1 Build 136)  -->
  <path d="M84,14c1.1,0,2,.9,2,2v68c0,1.1-.9,2-2,2H16c-1.1,0-2-.9-2-2V16c0-1.1.9-2,2-2h68M84,10H16c-3.31,0-6,2.69-6,6v68c0,3.31,2.69,6,6,6h68c3.31,0,6-2.69,6-6V16c0-3.31-2.69-6-6-6h0Z"/>
  <rect x="37.4" y="21.55" width="25.31" height="19.96" rx="2.54" ry="2.54"/>
  <circle cx="26.87" cy="24.27" r="2.73"/>
  <circle cx="73.81" cy="24.93" r="3.26"/>
  <circle cx="73.81" cy="38.31" r="4.02"/>
  <g>
    <circle cx="28.42" cy="60.8" r="3.2"/>
    <circle cx="42.81" cy="60.8" r="3.2"/>
    <circle cx="28.42" cy="75.18" r="3.2"/>
    <circle cx="42.81" cy="75.18" r="3.2"/>
    <circle cx="57.19" cy="60.8" r="3.2"/>
    <circle cx="71.58" cy="60.8" r="3.2"/>
    <circle cx="57.19" cy="75.18" r="3.2"/>
    <circle cx="71.58" cy="75.18" r="3.2"/>
  </g>
  <circle cx="26.87" cy="39.6" r="2.73"/>
  <circle cx="26.87" cy="31.94" r="2.73"/>
  <circle cx="59.98" cy="48" r="2.73"/>
  <circle cx="40.13" cy="48" r="2.73"/>
  <circle cx="50" cy="48" r="2.73"/>
</svg>